<svg xmlns="http://www.w3.org/2000/svg" viewBox="0 0 154.56 152.00" data-guides="{&quot;vertical&quot;:[],&quot;horizontal&quot;:[]}"><defs/><path fill="#ffffff" fill-opacity="1" stroke="#ffffff" stroke-opacity="1" stroke-width="6" id="tSvg1638654cbe0" title="Ellipse 21" d="M78.28 6C116.9399 6 148.28 37.3401 148.28 76C148.28 114.6599 116.9399 146 78.28 146C39.6201 146 8.28 114.6599 8.28 76C8.28 37.3401 39.6201 6 78.28 6Z" style="transform-origin: 78.28px 76px;"/><path fill="#44a6e0" fill-opacity="1" stroke="#44a6e0" stroke-opacity="1" stroke-width="6" id="tSvg18a89d1edfc" title="Ellipse 1" d="M77.28 9C113.7308 9 143.28 38.5492 143.28 75C143.28 111.4508 113.7308 141 77.28 141C40.8292 141 11.28 111.4508 11.28 75C11.28 38.5492 40.8292 9 77.28 9Z" style="transform-origin: 77.28px 75px;"/><path fill="#20cd6b" fill-opacity="1" stroke="#20cd6b" stroke-opacity="1" stroke-width="6" id="tSvg104ce0382" title="Ellipse 2" d="M80.78 16C84.9221 16 88.28 20.9249 88.28 27C88.28 33.0751 84.9221 38 80.78 38C76.6379 38 73.28 33.0751 73.28 27C73.28 20.9249 76.6379 16 80.78 16Z" style="transform-origin: 80.78px 27px;"/><path fill="#20cd6b" fill-opacity="1" stroke="#20cd6b" stroke-opacity="1" stroke-width="6" id="tSvg7bcb8f9458" title="Ellipse 3" d="M83.28 28C88.8028 28 93.28 32.4772 93.28 38C93.28 43.5228 88.8028 48 83.28 48C77.7572 48 73.28 43.5228 73.28 38C73.28 32.4772 77.7572 28 83.28 28Z" style="transform-origin: 83.28px 38px;"/><path fill="#20cd6b" fill-opacity="1" stroke="#20cd6b" stroke-opacity="1" stroke-width="6" id="tSvg17ce0fe2343" title="Ellipse 4" d="M85.78 38C95.445 38 103.28 43.8203 103.28 51C103.28 58.1797 95.445 64 85.78 64C76.115 64 68.28 58.1797 68.28 51C68.28 43.8203 76.115 38 85.78 38Z" style="transform-origin: 85.78px 51px;"/><path fill="#20cd6b" fill-opacity="1" stroke="#20cd6b" stroke-opacity="1" stroke-width="6" id="tSvgd43ec33432" title="Ellipse 15" d="M32.28 74C40.012 74 46.28 79.1487 46.28 85.5C46.28 91.8513 40.012 97 32.28 97C24.548 97 18.28 91.8513 18.28 85.5C18.28 79.1487 24.548 74 32.28 74Z" style="transform-origin: 32.28px 85.5px;"/><path fill="#20cd6b" fill-opacity="1" stroke="#20cd6b" stroke-opacity="1" stroke-width="6" id="tSvg89665a41bb" title="Ellipse 17" d="M32.28 87C35.5937 87 38.28 94.3873 38.28 103.5C38.28 112.6127 35.5937 120 32.28 120C28.9663 120 26.28 112.6127 26.28 103.5C26.28 94.3873 28.9663 87 32.28 87Z" style="transform-origin: 32.28px 103.5px;"/><path fill="#20cd6b" fill-opacity="1" stroke="#20cd6b" stroke-opacity="1" stroke-width="6" id="tSvg157a8dd31dc" title="Ellipse 18" d="M42.78 108C45.8176 108 48.28 110.4624 48.28 113.5C48.28 116.5376 45.8176 119 42.78 119C39.7424 119 37.28 116.5376 37.28 113.5C37.28 110.4624 39.7424 108 42.78 108Z" style="transform-origin: 42.78px 113.5px;"/><path fill="#20cd6b" fill-opacity="1" stroke="#20cd6b" stroke-opacity="1" stroke-width="6" id="tSvg155604b43d1" title="Ellipse 19" d="M47.78 119C53.579 119 58.28 120.7909 58.28 123C58.28 125.2091 53.579 127 47.78 127C41.981 127 37.28 125.2091 37.28 123C37.28 120.7909 41.981 119 47.78 119Z" style="transform-origin: 47.78px 123px;"/><path fill="#20cd6b" fill-opacity="1" stroke="#20cd6b" stroke-opacity="1" stroke-width="6" id="tSvg13bb988c183" title="Ellipse 16" d="M19.28 64C23.6983 64 27.28 69.1487 27.28 75.5C27.28 81.8513 23.6983 87 19.28 87C14.8617 87 11.28 81.8513 11.28 75.5C11.28 69.1487 14.8617 64 19.28 64Z" style="transform-origin: 19.28px 75.5px;"/><path fill="#20cd6b" fill-opacity="1" stroke="#20cd6b" stroke-opacity="1" stroke-width="6" id="tSvg1364cd8e734" title="Ellipse 6" d="M68.78 48C79.5496 48 88.28 53.8203 88.28 61C88.28 68.1797 79.5496 74 68.78 74C58.0104 74 49.28 68.1797 49.28 61C49.28 53.8203 58.0104 48 68.78 48Z" style="transform-origin: 68.78px 61px;"/><path fill="#20cd6b" fill-opacity="1" stroke="#20cd6b" stroke-opacity="1" stroke-width="6" id="tSvg17442ec367a" title="Ellipse 7" d="M112.78 85C123.5496 85 132.28 90.8203 132.28 98C132.28 105.1797 123.5496 111 112.78 111C102.0104 111 93.28 105.1797 93.28 98C93.28 90.8203 102.0104 85 112.78 85Z" style="transform-origin: 112.78px 98px;"/><path fill="#20cd6b" fill-opacity="1" stroke="#20cd6b" stroke-opacity="1" stroke-width="6" id="tSvg5511683028" title="Ellipse 8" d="M87.78 63C98.5496 63 107.28 68.8203 107.28 76C107.28 83.1797 98.5496 89 87.78 89C77.0104 89 68.28 83.1797 68.28 76C68.28 68.8203 77.0104 63 87.78 63Z" style="transform-origin: 87.78px 76px;"/><path fill="#20cd6b" fill-opacity="1" stroke="#20cd6b" stroke-opacity="1" stroke-width="6" id="tSvgf7e62f2c96" title="Ellipse 9" d="M96.78 57C102.579 57 107.28 64.1634 107.28 73C107.28 81.8366 102.579 89 96.78 89C90.981 89 86.28 81.8366 86.28 73C86.28 64.1634 90.981 57 96.78 57Z" style="transform-origin: 96.78px 73px;"/><path fill="#20cd6b" fill-opacity="1" stroke="#20cd6b" stroke-opacity="1" stroke-width="6" id="tSvgb6b6e7b6bf" title="Ellipse 10" d="M112.78 74C118.579 74 123.28 81.1634 123.28 90C123.28 98.8366 118.579 106 112.78 106C106.981 106 102.28 98.8366 102.28 90C102.28 81.1634 106.981 74 112.78 74Z" style="transform-origin: 112.78px 90px;"/><path fill="#20cd6b" fill-opacity="1" stroke="#20cd6b" stroke-opacity="1" stroke-width="6" id="tSvg653c59f02f" title="Ellipse 11" d="M121.78 79C127.579 79 132.28 86.1634 132.28 95C132.28 103.8366 127.579 111 121.78 111C115.981 111 111.28 103.8366 111.28 95C111.28 86.1634 115.981 79 121.78 79Z" style="transform-origin: 121.78px 95px;"/><path fill="#20cd6b" fill-opacity="1" stroke="#20cd6b" stroke-opacity="1" stroke-width="6" id="tSvg1286526ce16" title="Ellipse 12" d="M107.28 98C115.5643 98 122.28 103.3726 122.28 110C122.28 116.6274 115.5643 122 107.28 122C98.9957 122 92.28 116.6274 92.28 110C92.28 103.3726 98.9957 98 107.28 98Z" style="transform-origin: 107.28px 110px;"/><path fill="#20cd6b" fill-opacity="1" stroke="#20cd6b" stroke-opacity="1" stroke-width="6" id="tSvg2436ca1376" title="Ellipse 13" d="M96.78 111C105.0643 111 111.78 116.3726 111.78 123C111.78 129.6274 105.0643 135 96.78 135C88.4957 135 81.78 129.6274 81.78 123C81.78 116.3726 88.4957 111 96.78 111Z" style="transform-origin: 96.78px 123px;"/><path fill="#20cd6b" fill-opacity="1" stroke="#20cd6b" stroke-opacity="1" stroke-width="6" id="tSvg52100711c3" title="Ellipse 14" d="M88.28 118C91.8699 118 94.78 121.8056 94.78 126.5C94.78 131.1944 91.8699 135 88.28 135C84.6901 135 81.78 131.1944 81.78 126.5C81.78 121.8056 84.6901 118 88.28 118Z" style="transform-origin: 88.28px 126.5px;"/><path fill="#20cd6b" fill-opacity="1" stroke="#20cd6b" stroke-opacity="1" stroke-width="6" id="tSvg143ee282250" title="Ellipse 5" d="M103.28 36C111.5643 36 118.28 39.8056 118.28 44.5C118.28 49.1944 111.5643 53 103.28 53C94.9957 53 88.28 49.1944 88.28 44.5C88.28 39.8056 94.9957 36 103.28 36Z" style="transform-origin: 103.28px 44.5px;"/><path fill="rgb(0, 0, 0)" stroke="#000000" fill-opacity="1" stroke-width="6" stroke-opacity="1" fill-rule="evenodd" id="tSvg11336d64b09" title="Path 1" d="M134.0044 113.0951C141.1946 102.4732 145.28 89.7268 145.28 76C145.28 39.0683 115.2117 9 78.28 9C41.3483 9 11.28 39.0683 11.28 76C11.28 112.9317 41.3483 143 78.28 143C100.8312 143 120.7678 131.7244 133.0239 114.5659C133.1328 114.4569 133.2418 114.348 133.3507 114.239C133.5141 114.0756 133.841 113.5854 134.0044 113.0951ZM140.3776 76C140.3776 82.8634 139.2337 89.4 137.2727 95.4463C137.4361 89.2366 136.4556 83.0268 133.6776 79.5951C130.7361 76 126.9776 76.1634 124.0361 76.4902C119.9507 76.8171 116.0288 77.1439 111.4532 67.5024C107.858 59.822 111.2898 56.8805 117.1727 52.9585C121.4215 50.1805 126.9776 46.2585 123.0556 39.2317C119.4605 32.8585 114.0678 33.022 109.6556 33.022C106.8776 33.022 104.2629 33.022 101.9751 31.5512C98.38 29.2634 95.602 24.361 92.8239 19.7854C91.8434 18.1512 90.8629 16.5171 90.0459 15.0463C118.8068 20.7659 140.3776 45.9317 140.3776 76ZM60.958 16.3537C61.0125 16.4081 61.067 16.4626 61.1215 16.5171C64.88 19.622 74.1946 29.2634 73.2141 37.4341C72.8873 40.2122 67.3312 42.5 62.5922 44.7878C55.8922 47.7293 48.2117 51.161 46.741 57.861C45.7605 62.2732 47.7215 67.1756 52.9507 73.0585C64.7166 86.4585 74.5215 89.4 81.7117 91.6878C87.1044 93.322 90.6995 94.4659 93.1507 99.2049C96.2556 104.9244 93.9678 107.2122 87.758 112.6049C82.0385 117.6707 74.1946 124.5341 73.2141 138.0976C69.1288 137.7707 65.2068 137.1171 61.2849 135.9732C61.9385 116.3634 53.6044 109.9902 47.3946 105.2512C45.4337 103.7805 43.6361 102.3098 42.6556 100.839C41.8385 99.5317 43.6361 96.4268 45.2702 93.6488C47.7215 89.4 50.4995 84.4976 48.702 79.7585C47.3946 76.3268 44.1263 73.8756 38.5702 71.9146C19.941 65.7049 22.3922 49.0366 22.5556 48.3829C22.5556 48.3285 22.5556 48.274 22.5556 48.2195C30.5629 32.8585 44.2898 21.2561 60.958 16.3537ZM16.1824 76C16.1824 69.7902 17.1629 63.7439 18.7971 58.1878C20.5946 64.7244 25.3337 72.5683 37.2629 76.4902C41.3483 77.7976 43.7995 79.4317 44.4532 81.3927C45.4337 84.0073 43.3093 87.6024 41.3483 91.1976C38.8971 95.2829 36.4459 99.6951 38.7337 103.4537C40.041 105.7415 42.3288 107.3756 44.6166 109.1732C50.0093 113.2585 56.7093 118.3244 56.5459 134.339C33.0141 125.3512 16.1824 102.6366 16.1824 76ZM78.28 138.0976C79.0971 126.6585 85.4702 121.1024 91.0263 116.0366C96.5824 111.1341 102.4654 105.9049 97.3995 96.5902C93.8044 90.0537 88.902 88.5829 83.019 86.7854C76.1556 84.661 67.4946 81.8829 56.5459 69.6268C52.6239 65.2146 50.8263 61.4561 51.48 58.678C52.4605 54.4293 58.8337 51.6512 64.5532 49.0366C71.0898 46.0951 77.4629 43.3171 78.1166 37.9244C79.2605 28.4463 70.9263 18.9683 66.6776 14.8829C70.4361 14.2293 74.358 13.739 78.28 13.739C80.0776 13.739 81.8751 13.9024 83.5093 13.9024C83.6727 14.0659 83.6727 14.2293 83.8361 14.2293C85.4702 16.0268 87.2678 18.9683 89.0654 21.9098C91.8434 26.8122 95.1117 32.3683 99.6873 35.3098C103.119 37.5976 106.7141 37.5976 109.9824 37.4341C114.558 37.4341 117.0093 37.5976 118.9702 41.1927C120.6044 43.9707 119.4605 45.1146 114.558 48.5463C109.3288 51.978 101.6483 57.3707 107.041 69.3C112.9239 82.0463 119.4605 81.5561 124.3629 81.0659C127.141 80.9024 128.4483 80.739 129.7556 82.3732C134.0044 87.9293 132.2068 105.4146 130.0824 110.3171C118.9702 126.9854 99.8507 138.0976 78.28 138.0976Z" style=""/><text font-size="64px" font-weight="700" font-style="normal" text-anchor="middle" letter-spacing="0px" word-spacing="normal" data-lh="2" data-tt="uppercase" stroke="#000000" stroke-width="5" id="tSvgd2d30535ab" data-ff="Verdana" x="60.78" y="11.00" width="33" height="128" title="The best ideas come " fill="#ffffff" fill-opacity="1" stroke-opacity="0.8" data-valign="middle" data-fs="underline" data-text="BNF" style="font-family: Verdana; text-decoration: underline; transform-origin: 77.28px 75px;"><tspan y="97.40" x="77.28">BNF</tspan></text></svg>