<svg xmlns="http://www.w3.org/2000/svg" viewBox="0 0 190.25 225.20" data-guides="{&quot;vertical&quot;:[],&quot;horizontal&quot;:[]}"><defs/><path fill="#ffffff" stroke="#ffffff" fill-opacity="1" stroke-width="25" stroke-opacity="1" fill-rule="evenodd" id="tSvg99a7150b40" title="Path 3" d="M157.3284 179.9007C138.2461 165.1361 129.9205 143.288 127.2425 134.6724C136.5538 136.769 145.8651 138.8655 155.1763 140.9621C157.2647 141.4291 159.0196 139.7487 158.3351 137.9372C158.1709 137.5025 157.8759 137.11 157.4827 136.8032C143.8098 125.9417 133.6755 112.0567 128.2435 96.7423C134.3123 98.1089 140.3813 99.4753 146.4502 100.8418C148.539 101.307 150.2917 99.6247 149.605 97.8138C149.4319 97.3571 149.1145 96.9475 148.6915 96.6351C132.9922 85.1043 126.0055 67.6053 124.0455 61.8223C128.2421 59.5599 132.4388 57.2976 136.6355 55.0353C137.9053 54.3497 138.2493 52.8533 137.4043 51.6914C134.1956 47.2862 130.987 42.8808 127.7783 38.4755C126.9317 37.3146 125.2163 36.9283 123.9453 37.6125C119.1264 40.2102 114.3075 42.8081 109.4886 45.4058C108.2187 46.0915 107.8746 47.5879 108.7197 48.7496C111.5141 52.5861 114.3085 56.4225 117.1027 60.2591C112.789 64.6294 98.857 77.4182 79.6616 81.0922C77.6084 81.4906 76.9358 83.7297 78.4509 85.1225C78.833 85.4736 79.3168 85.7245 79.843 85.8443C85.912 87.2108 91.9807 88.5773 98.0497 89.9438C86.4564 101.4247 71.2489 109.6036 54.173 113.5416C52.1369 113.993 51.5388 116.2518 53.0966 117.6074C53.4703 117.9327 53.9332 118.165 54.434 118.2785C63.7452 120.3751 73.0565 122.4716 82.3677 124.5682C76.1865 131.1891 59.1096 147.3175 35.4685 152.4622C33.4324 152.9136 32.8343 155.1723 34.3919 156.5281C34.7658 156.8534 35.2286 157.0856 35.7294 157.1991C49.1268 160.2158 62.5241 163.2324 75.9215 166.2489C80.4667 173.0842 85.0119 179.9194 89.5571 186.7546C89.5921 186.7956 89.627 186.8366 89.662 186.8777C89.8472 187.1011 90.072 187.2976 90.327 187.4588C90.3632 187.4669 90.3994 187.475 90.4355 187.4831C90.7042 187.6403 90.9989 187.7571 91.3069 187.8287C91.6157 187.896 91.9325 187.9168 92.2435 187.8903C92.2796 187.8984 92.3158 187.9065 92.352 187.9147C92.6523 187.8786 92.9409 187.7978 93.2057 187.6756C93.2551 187.6536 93.3045 187.6315 93.3539 187.6094C100.5126 183.4095 107.6712 179.2096 114.8299 175.0097C128.2273 178.0263 141.6246 181.0429 155.022 184.0595C157.1103 184.5266 158.8653 182.846 158.1808 181.0347C158.0165 180.5999 157.7215 180.2074 157.3284 179.9007ZM124.7085 43.0597C126.8718 46.0573 129.0349 49.0549 131.1981 52.0525C127.9384 53.8235 124.6788 55.5946 121.419 57.3656C119.2547 54.3733 117.0904 51.3809 114.926 48.3886C118.1868 46.6123 121.4477 44.8361 124.7085 43.0597ZM114.7246 170.0092C113.9661 169.8426 113.1805 169.9605 112.5581 170.3342C105.9493 174.2654 99.3406 178.1965 92.7318 182.1276C88.4926 175.7539 84.2532 169.3802 80.0139 163.0065C79.6162 162.4029 78.9595 161.9604 78.2028 161.7858C67.5838 159.3948 56.9647 157.0038 46.3457 154.6127C72.6799 145.6119 88.772 125.5789 89.4995 124.6478C90.6057 123.2593 89.6932 121.2448 87.7588 120.8053C80.2435 119.1131 72.7282 117.421 65.2129 115.7288C81.0977 110.5581 94.9355 101.7119 105.3406 90.0759C106.4796 88.67 105.5278 86.6134 103.5493 86.2054C99.2461 85.2365 94.9431 84.2675 90.6401 83.2987C101.6982 79.2133 111.5528 73.101 119.584 65.3466C123.4339 75.7762 129.6459 85.5061 137.8291 93.9239C133.5261 92.9551 129.223 91.9862 124.9199 91.0173C122.9578 90.5381 121.2005 91.9846 121.6126 93.7397C125.9057 108.6853 134.5132 122.5854 146.5734 134.0483C139.0581 132.3561 131.5428 130.6639 124.0276 128.9717C122.0914 128.5398 120.3878 129.9652 120.7781 131.6906C121.0414 132.8614 126.8009 157.7648 146.5818 177.1823C135.9627 174.7913 125.3437 172.4002 114.7246 170.0092Z" style=""/><path fill="#000000" stroke="#000000" fill-opacity="1" stroke-width="20" stroke-opacity="1" fill-rule="evenodd" id="tSvg17c1c9900c4" title="Path 2" d="M157.3284 179.9006C138.2461 165.136 129.9204 143.2879 127.2425 134.6723C136.5538 136.7689 145.8651 138.8654 155.1763 140.962C157.2647 141.429 159.0196 139.7486 158.3351 137.9371C158.1708 137.5024 157.8759 137.1099 157.4827 136.8031C143.8097 125.9416 133.6755 112.0566 128.2435 96.7422C134.3123 98.1088 140.3812 99.4752 146.4502 100.8417C148.5389 101.3069 150.2916 99.6246 149.605 97.8137C149.4319 97.357 149.1144 96.9474 148.6915 96.635C132.9922 85.1042 126.0055 67.6052 124.0455 61.8222C128.2421 59.5598 132.4388 57.2975 136.6354 55.0352C137.9053 54.3496 138.2493 52.8532 137.4043 51.6913C134.1955 47.2861 130.987 42.8807 127.7783 38.4754C126.9316 37.3145 125.2163 36.9282 123.9453 37.6124C119.1264 40.2101 114.3075 42.808 109.4886 45.4057C108.2187 46.0914 107.8746 47.5878 108.7197 48.7495C111.5141 52.586 114.3084 56.4224 117.1027 60.259C112.789 64.6293 98.857 77.4181 79.6616 81.0921C77.6084 81.4905 76.9358 83.7296 78.4509 85.1224C78.833 85.4735 79.3167 85.7244 79.843 85.8442C85.9119 87.2107 91.9807 88.5772 98.0496 89.9437C86.4564 101.4247 71.2489 109.6035 54.173 113.5415C52.1369 113.9929 51.5388 116.2517 53.0965 117.6073C53.4703 117.9326 53.9331 118.1649 54.4339 118.2784C63.7452 120.375 73.0565 122.4715 82.3677 124.5681C76.1865 131.189 59.1095 147.3174 35.4685 152.4621C33.4324 152.9135 32.8343 155.1722 34.3919 156.528C34.7657 156.8533 35.2286 157.0855 35.7294 157.199C49.1267 160.2157 62.5241 163.2323 75.9215 166.2488C80.4667 173.0841 85.0118 179.9193 89.5571 186.7545C89.5921 186.7955 89.627 186.8365 89.6619 186.8776C89.8472 187.101 90.072 187.2975 90.327 187.4587C90.3632 187.4668 90.3994 187.4749 90.4355 187.483C90.7042 187.6402 90.9989 187.757 91.3069 187.8286C91.6157 187.8959 91.9324 187.9167 92.2435 187.8902C92.2796 187.8983 92.3158 187.9064 92.352 187.9146C92.6523 187.8785 92.9409 187.7977 93.2057 187.6755C93.2551 187.6535 93.3045 187.6314 93.3539 187.6093C100.5125 183.4094 107.6712 179.2095 114.8299 175.0096C128.2272 178.0262 141.6246 181.0428 155.022 184.0594C157.1103 184.5265 158.8653 182.8459 158.1807 181.0346C158.0165 180.5998 157.7215 180.2073 157.3284 179.9006ZM124.7085 43.0596C126.8717 46.0572 129.0348 49.0548 131.1981 52.0524C127.9384 53.8234 124.6788 55.5945 121.419 57.3655C119.2547 54.3732 117.0904 51.3808 114.926 48.3885C118.1868 46.6122 121.4476 44.836 124.7085 43.0596ZM114.7246 170.0091C113.9661 169.8425 113.1805 169.9604 112.5581 170.3341C105.9493 174.2653 99.3406 178.1964 92.7318 182.1275C88.4925 175.7538 84.2532 169.3801 80.0139 163.0064C79.6161 162.4028 78.9594 161.9603 78.2028 161.7857C67.5837 159.3947 56.9647 157.0037 46.3456 154.6126C72.6799 145.6118 88.772 125.5788 89.4995 124.6477C90.6057 123.2592 89.6931 121.2447 87.7588 120.8052C80.2435 119.113 72.7282 117.4209 65.2129 115.7287C81.0977 110.558 94.9354 101.7118 105.3405 90.0758C106.4795 88.6699 105.5277 86.6133 103.5492 86.2053C99.2461 85.2364 94.9431 84.2674 90.64 83.2986C101.6982 79.2132 111.5528 73.1009 119.584 65.3465C123.4339 75.7761 129.6459 85.506 137.8291 93.9238C133.5261 92.955 129.223 91.9861 124.9199 91.0172C122.9578 90.538 121.2005 91.9845 121.6126 93.7396C125.9056 108.6852 134.5132 122.5853 146.5734 134.0482C139.0581 132.356 131.5427 130.6638 124.0275 128.9716C122.0914 128.5397 120.3877 129.9651 120.7781 131.6905C121.0414 132.8613 126.8009 157.7647 146.5818 177.1822C135.9627 174.7912 125.3436 172.4001 114.7246 170.0091Z" style=""/><path fill="#25be4c" stroke="#25be4c" fill-opacity="1" stroke-width="15" stroke-opacity="1" fill-rule="evenodd" id="tSvg101b8075cdb" title="Path 1" d="M156.983 179.9092C137.9008 165.1447 129.5751 143.2965 126.8971 134.681C136.2084 136.7775 145.5197 138.8741 154.8309 140.9707C156.9193 141.4377 158.6742 139.7573 157.9897 137.9458C157.8255 137.5111 157.5304 137.1186 157.1373 136.8118C143.4643 125.9503 133.3301 112.0653 127.898 96.7509C133.9669 98.1175 140.0358 99.4839 146.1047 100.8504C148.1935 101.3156 149.9462 99.6333 149.2596 97.8224C149.0864 97.3656 148.769 96.9561 148.3461 96.6438C132.6468 85.1128 125.6601 67.6139 123.7 61.8308C127.8967 59.5685 132.0933 57.3061 136.29 55.0439C137.5599 54.3582 137.904 52.8618 137.0589 51.7C133.8502 47.2947 130.6415 42.8894 127.4329 38.4841C126.5862 37.3232 124.8709 36.9369 123.5999 37.6211C118.781 40.2188 113.9621 42.8166 109.1432 45.4144C107.8733 46.1 107.5292 47.5964 108.3743 48.7582C111.1686 52.5947 113.963 56.4311 116.7573 60.2676C112.4436 64.638 98.5116 77.4268 79.3162 81.1007C77.263 81.4992 76.5904 83.7383 78.1055 85.131C78.4876 85.4822 78.9714 85.7331 79.4976 85.8529C85.5665 87.2194 91.6353 88.5859 97.7043 89.9524C86.111 101.4333 70.9035 109.6122 53.8276 113.5502C51.7915 114.0016 51.1934 116.2604 52.7511 117.616C53.1248 117.9413 53.5878 118.1736 54.0885 118.2871C63.3998 120.3837 72.7111 122.4802 82.0223 124.5768C75.841 131.1976 58.7641 147.326 35.1231 152.4707C33.087 152.9221 32.4889 155.1809 34.0465 156.5367C34.4203 156.8619 34.8832 157.0942 35.384 157.2077C48.7813 160.2243 62.1787 163.2409 75.5761 166.2575C80.1213 173.0927 84.6665 179.9279 89.2117 186.7631C89.2467 186.8042 89.2816 186.8452 89.3165 186.8862C89.5018 187.1097 89.7266 187.3062 89.9815 187.4673C90.0177 187.4754 90.0539 187.4836 90.09 187.4917C90.3588 187.6489 90.6535 187.7657 90.9615 187.8372C91.2703 187.9045 91.5871 187.9254 91.8981 187.8988C91.9342 187.907 91.9704 187.9151 92.0066 187.9233C92.3069 187.8872 92.5955 187.8064 92.8602 187.6841C92.9097 187.6621 92.9591 187.6401 93.0085 187.618C100.1672 183.4181 107.3258 179.2181 114.4845 175.0183C127.8818 178.0348 141.2792 181.0515 154.6766 184.0681C156.7649 184.5352 158.5199 182.8547 157.8354 181.0432C157.6711 180.6085 157.3761 180.216 156.983 179.9092ZM124.3631 43.0683C126.5263 46.0659 128.6894 49.0635 130.8526 52.0611C127.593 53.8321 124.3334 55.6031 121.0736 57.3741C118.9093 54.3819 116.745 51.3895 114.5806 48.3972C117.8414 46.6209 121.1023 44.8446 124.3631 43.0683ZM114.3792 170.0178C113.6207 169.8512 112.8351 169.969 112.2126 170.3428C105.6039 174.2739 98.9952 178.2051 92.3864 182.1362C88.1471 175.7624 83.9078 169.3887 79.6685 163.015C79.2708 162.4115 78.614 161.9689 77.8574 161.7944C67.2383 159.4034 56.6193 157.0124 46.0002 154.6213C72.3345 145.6205 88.4266 125.5874 89.1541 124.6564C90.2604 123.2679 89.3477 121.2534 87.4134 120.8139C79.8981 119.1217 72.3828 117.4295 64.8675 115.7374C80.7523 110.5667 94.5901 101.7204 104.9951 90.0844C106.1341 88.6786 105.1823 86.6219 103.2038 86.2139C98.9007 85.245 94.5977 84.2761 90.2947 83.3073C101.3528 79.2219 111.2075 73.1096 119.2386 65.3551C123.0885 75.7848 129.3005 85.5147 137.4837 93.9325C133.1807 92.9636 128.8776 91.9947 124.5745 91.0258C122.6124 90.5466 120.8551 91.9932 121.2672 93.7483C125.5603 108.6938 134.1678 122.5939 146.2279 134.0568C138.7127 132.3646 131.1974 130.6724 123.6821 128.9802C121.746 128.5483 120.0423 129.9738 120.4327 131.6992C120.696 132.87 126.4555 157.7734 146.2364 177.1909C135.6173 174.7999 124.9982 172.4088 114.3792 170.0178Z" style=""/><path fill="#25be4c" stroke="#25be4c" fill-opacity="1" stroke-width="1" stroke-opacity="1" id="tSvg11659331df5" title="Ellipse 1" d="M115.9929 71.2116C123.315 71.2116 129.2508 78.2948 129.2508 87.0323C129.2508 95.7698 123.315 102.8529 115.9929 102.8529C108.6708 102.8529 102.7351 95.7698 102.7351 87.0323C102.7351 78.2948 108.6708 71.2116 115.9929 71.2116Z" style="transform-origin: -4878.79px -4920.54px;"/><path fill="#25be4c" stroke="#25be4c" fill-opacity="1" stroke-width="1" stroke-opacity="1" id="tSvgddaa4232ed" title="Ellipse 2" d="M102.3451 105.1682C117.2047 105.1682 129.2508 118.1251 129.2508 134.1084C129.2508 150.0916 117.2047 163.0486 102.3451 163.0486C87.4856 163.0486 75.4395 150.0916 75.4395 134.1084C75.4395 118.1251 87.4856 105.1682 102.3451 105.1682Z" style="transform-origin: -4896.29px -4859.54px;"/><path fill="#25be4c" stroke="#25be4c" fill-opacity="1" stroke-width="1" stroke-opacity="1" id="tSvg14eb41b1f33" title="Ellipse 4" d="M95.6526 121.3747C110.5122 121.3747 122.5583 134.3316 122.5583 150.3149C122.5583 166.2981 110.5122 179.2551 95.6526 179.2551C80.793 179.2551 68.747 166.2981 68.747 150.3149C68.747 134.3316 80.793 121.3747 95.6526 121.3747Z" style="transform-origin: -4904.87px -4838.54px;"/><path fill="#25be4c" stroke="#25be4c" fill-opacity="1" stroke-width="1" stroke-opacity="1" id="tSvgc92213048f" title="Ellipse 5" d="M67.2508 137.1953C73.0654 137.1953 77.7791 143.0692 77.7791 150.3149C77.7791 157.5606 73.0654 163.4345 67.2508 163.4345C61.4362 163.4345 56.7225 157.5606 56.7225 150.3149C56.7225 143.0692 61.4362 137.1953 67.2508 137.1953Z" style="transform-origin: -4941.29px -4838.54px;"/><path fill="#25be4c" stroke="#25be4c" fill-opacity="1" stroke-width="1" stroke-opacity="1" id="tSvg1c4b7ad02b" title="Ellipse 6" d="M124.9615 153.016C130.7761 153.016 135.4898 158.8898 135.4898 166.1355C135.4898 173.3812 130.7761 179.2551 124.9615 179.2551C119.1469 179.2551 114.4332 173.3812 114.4332 166.1355C114.4332 158.8898 119.1469 153.016 124.9615 153.016Z" style="transform-origin: -4867.29px -4818.04px;"/><path fill="#25be4c" stroke="#25be4c" fill-opacity="1" stroke-width="1" stroke-opacity="1" id="tSvg19308f6860e" title="Ellipse 3" d="M104.6847 87.5216C119.5443 87.5216 131.5904 100.4786 131.5904 116.4618C131.5904 132.445 119.5443 145.402 104.6847 145.402C89.8252 145.402 77.7791 132.445 77.7791 116.4618C77.7791 100.4786 89.8252 87.5216 104.6847 87.5216Z" style="transform-origin: -4893.29px -4882.41px;"/><text font-size="128px" font-weight="700" font-style="normal" text-anchor="middle" letter-spacing="0px" word-spacing="normal" data-lh="2" data-tt="uppercase" stroke="#ffffff" stroke-width="15" id="tSvgac5731ecc6" data-ff="Verdana" x="-19.32" y="29.61" width="248" height="213" title="Good design is obvio" fill="#ffffff" fill-opacity="1" stroke-opacity="1" data-valign="bottom" data-fs="underline" data-text="U" style="font-family: Verdana; text-decoration: underline; transform-origin: 104.68px 136.11px;"><tspan y="153.01" x="104.68">U</tspan></text><text font-size="128.00px" font-weight="700" font-style="normal" text-anchor="middle" letter-spacing="0px" word-spacing="normal" data-lh="2" data-tt="uppercase" stroke="#000000" stroke-width="10" id="tSvg2ebc700a4f" data-ff="Verdana" x="-19.32" y="29.61" width="248" height="213" title="Good design is obvio" fill="#000000" fill-opacity="1" stroke-opacity="1" data-valign="bottom" data-fs="underline" data-text="U" style="font-family: Verdana; text-decoration: underline; transform-origin: 104.68px 136.11px;"><tspan y="153.01" x="104.68">U</tspan></text><text font-size="128.00px" font-weight="700" font-style="normal" text-anchor="middle" letter-spacing="0px" word-spacing="normal" data-lh="2" data-tt="uppercase" stroke="#229eee" stroke-width="6" id="tSvg10f2f9e90c4" data-ff="Verdana" x="-19.32" y="29.61" width="248" height="213" title="Good design is obvio" fill="#299eee" fill-opacity="1" stroke-opacity="1" data-valign="bottom" data-fs="underline" data-text="U" style="font-family: Verdana; text-decoration: underline; transform-origin: 104.68px 136.11px;"><tspan y="153.01" x="104.68">U</tspan></text></svg>